<svg width="1400" height="1400" viewBox="0 0 1400 1400" fill="none" xmlns="http://www.w3.org/2000/svg">
  <rect width="1400" height="1400" rx="72" fill="#06070B"/>
  <rect x="82" y="82" width="1236" height="1236" rx="42" stroke="rgba(255,255,255,0.08)"/>
  <path d="M230 1128C430 946 578 814 700 700C818 588 946 430 1130 230" stroke="rgba(255,255,255,0.1)" stroke-width="2"/>
  <path d="M280 1184C468 970 586 840 700 700C802 576 930 444 1090 274" stroke="rgba(255,255,255,0.06)" stroke-width="2"/>
  <path d="M182 1060C354 902 514 768 700 700C878 636 1048 522 1218 340" stroke="rgba(216,181,121,0.14)" stroke-width="2"/>
  <circle cx="700" cy="700" r="364" stroke="rgba(255,255,255,0.12)"/>
  <circle cx="700" cy="700" r="254" stroke="rgba(255,255,255,0.09)"/>
  <circle cx="700" cy="700" r="146" stroke="rgba(255,255,255,0.07)"/>
  <circle cx="700" cy="700" r="192" fill="url(#core)"/>
  <circle cx="700" cy="700" r="78" fill="#090A0F"/>
  <circle cx="700" cy="700" r="24" fill="#F4F2EC" fill-opacity="0.9"/>
  <circle cx="1030" cy="1010" r="128" fill="url(#pink)"/>
  <circle cx="356" cy="394" r="150" fill="url(#cyan)"/>
  <circle cx="1132" cy="316" r="30" fill="#D8B579"/>
  <text x="124" y="186" fill="#F4F2EC" fill-opacity="0.94" font-family="Inter, Arial, sans-serif" font-size="44" letter-spacing="10">RECEIPTS</text>
  <text x="124" y="1260" fill="#F4F2EC" fill-opacity="0.5" font-family="Inter, Arial, sans-serif" font-size="34" letter-spacing="8">AFTER IMAGE GEOMETRY</text>
  <defs>
    <radialGradient id="core" cx="0" cy="0" r="1" gradientUnits="userSpaceOnUse" gradientTransform="translate(700 700) rotate(90) scale(192)">
      <stop stop-color="#FF54C6"/>
      <stop offset="0.42" stop-color="#8D7BFF"/>
      <stop offset="0.78" stop-color="#83F0E2" stop-opacity="0.45"/>
      <stop offset="1" stop-color="#06070B" stop-opacity="0.02"/>
    </radialGradient>
    <radialGradient id="pink" cx="0" cy="0" r="1" gradientUnits="userSpaceOnUse" gradientTransform="translate(1030 1010) rotate(90) scale(128)">
      <stop stop-color="#FF54C6" stop-opacity="0.9"/>
      <stop offset="1" stop-color="#FF54C6" stop-opacity="0.04"/>
    </radialGradient>
    <radialGradient id="cyan" cx="0" cy="0" r="1" gradientUnits="userSpaceOnUse" gradientTransform="translate(356 394) rotate(90) scale(150)">
      <stop stop-color="#83F0E2" stop-opacity="0.86"/>
      <stop offset="1" stop-color="#83F0E2" stop-opacity="0.04"/>
    </radialGradient>
  </defs>
</svg>
