<svg width="1400" height="1400" viewBox="0 0 1400 1400" fill="none" xmlns="http://www.w3.org/2000/svg">
  <rect width="1400" height="1400" rx="72" fill="#090A0F"/>
  <rect x="70" y="70" width="1260" height="1260" rx="46" stroke="rgba(255,255,255,0.09)"/>
  <rect x="128" y="128" width="1144" height="1144" rx="38" stroke="rgba(255,255,255,0.05)"/>
  <circle cx="703" cy="700" r="438" stroke="rgba(255,255,255,0.14)"/>
  <circle cx="703" cy="700" r="330" stroke="rgba(216,181,121,0.22)"/>
  <circle cx="703" cy="700" r="236" stroke="rgba(255,255,255,0.08)"/>
  <path d="M160 1160C402 1002 565 818 703 700C866 560 1030 386 1240 240" stroke="rgba(255,255,255,0.1)" stroke-width="2"/>
  <path d="M186 180C418 338 575 516 703 700C850 914 1042 1070 1218 1202" stroke="rgba(131,240,226,0.2)" stroke-width="2"/>
  <ellipse cx="703" cy="700" rx="150" ry="400" fill="url(#g1)"/>
  <ellipse cx="703" cy="700" rx="92" ry="286" fill="#05060A"/>
  <circle cx="988" cy="402" r="124" fill="url(#g2)"/>
  <circle cx="396" cy="1028" r="162" fill="url(#g3)"/>
  <circle cx="1024" cy="1084" r="44" fill="#D8B579" fill-opacity="0.88"/>
  <circle cx="330" cy="332" r="26" fill="#F4F2EC" fill-opacity="0.86"/>
  <text x="120" y="190" fill="#F4F2EC" fill-opacity="0.94" font-family="Inter, Arial, sans-serif" font-size="44" letter-spacing="10">RECEIPTS</text>
  <text x="120" y="1266" fill="#F4F2EC" fill-opacity="0.52" font-family="Inter, Arial, sans-serif" font-size="34" letter-spacing="8">MIDNIGHT RECEIVER</text>
  <defs>
    <linearGradient id="g1" x1="703" y1="300" x2="703" y2="1100" gradientUnits="userSpaceOnUse">
      <stop stop-color="#F4F2EC" stop-opacity="0.82"/>
      <stop offset="0.32" stop-color="#8D7BFF" stop-opacity="0.56"/>
      <stop offset="0.72" stop-color="#83F0E2" stop-opacity="0.24"/>
      <stop offset="1" stop-color="#090A0F" stop-opacity="0.04"/>
    </linearGradient>
    <radialGradient id="g2" cx="0" cy="0" r="1" gradientUnits="userSpaceOnUse" gradientTransform="translate(988 402) rotate(90) scale(124)">
      <stop stop-color="#FF54C6"/>
      <stop offset="1" stop-color="#8D7BFF" stop-opacity="0.08"/>
    </radialGradient>
    <radialGradient id="g3" cx="0" cy="0" r="1" gradientUnits="userSpaceOnUse" gradientTransform="translate(396 1028) rotate(90) scale(162)">
      <stop stop-color="#83F0E2" stop-opacity="0.98"/>
      <stop offset="1" stop-color="#83F0E2" stop-opacity="0.02"/>
    </radialGradient>
  </defs>
</svg>
